<?xml version="1.0" encoding="UTF-8" standalone="no"?>
<svg
   width="71.12mm"
   height="128.5mm"
   viewBox="0 0 71.12 128.5"
   version="1.1"
   id="svg1"
   xmlns="http://www.w3.org/2000/svg"
   xmlns:svg="http://www.w3.org/2000/svg">
  <defs id="defs1" />
  <g id="layer1">
    <!-- Background -->
    <rect
       style="fill:#1a1a2e;fill-opacity:1;stroke:#3a3a5e;stroke-width:0.5;stroke-opacity:1"
       id="background"
       width="70.62"
       height="128"
       x="0.25"
       y="0.25" />

    <!-- Module Title -->
    <path
       style="fill:#8888aa;fill-opacity:1"
       d="m 10,8 h 2 v 6 h -2 z m 3,0 h 2 v 3 h -2 z m 3,0 h 2 v 6 h -2 z m 3,3 h 2 v 3 h -2 z m 3,-3 h 2 v 6 h -2 z m 3,0 h 6 v 1 h -6 z m 0,2.5 h 5 v 1 h -5 z m 0,2.5 h 6 v 1 h -6 z m 8,-5 h 2 v 6 h -2 z m 3,0 h 5 v 1 h -5 z m 0,2.5 h 4 v 1 h -4 z m 0,2.5 h 5 v 1 h -5 z m 7,-5 h 5 v 1 h -5 z m 2,1 v 2 h 2 v -2 z m 0,2 h -2 v 3 h 5 v -1 h -3 z"
       id="title" />

    <!-- VCF-OB subtitle -->
    <path
       style="fill:#8888aa;fill-opacity:1;opacity:0.8"
       d="m 27,16 h 2 v 3 h -2 z m 3,0 h 2 v 1 h -2 z m 0,2 h 2 v 1 h -2 z m 3,0 h 2 v 1 h -2 z m 0,-2 h 2 v 1 h -2 z m 3,0 h 3 v 1 h -3 z m 0,1 h 2 v 1 h -2 z m 0,1 h 3 v 1 h -3 z"
       id="subtitle" />

    <!-- Section dividers -->
    <path
       style="fill:none;stroke:#3a3a5e;stroke-width:0.3;stroke-opacity:1"
       d="M 5,22 H 66.12 M 5,52 H 66.12 M 5,77 H 66.12"
       id="dividers" />

    <!-- INPUT label -->
    <path
       style="fill:#8888aa;fill-opacity:1;font-size:3px"
       d="m 8,26 h 1 v 4 h -1 z m 2,0 h 2 v 4 h -1 v -3 h -1 z m 3,0 h 2 v 1 h -2 z m 0,1.5 h 1.5 v 1 h -1.5 z m 0,1.5 h 2 v 1 h -2 z m 3,0 h 1 v -3 h 2 v 4 h -1 v -3 h -1 v 3 h -1 z m 4,0 h 2 v 1 h -2 z m 1,-3 v 3 h 1 v -3 z"
       id="input-label" />

    <!-- CUTOFF label -->
    <path
       style="fill:#6688cc;fill-opacity:1;font-size:3px"
       d="m 22,56 h 2 v 1 h -2 z m 0,1.5 h 1.5 v 1 h -1.5 z m 0,1.5 h 2 v 1 h -2 z m 3,0 h 1 v -3 h 2 v 4 h -1 v -3 h -1 v 3 h -1 z m 3,-3 h 2 v 1 h -2 z m 1,1 v 2 h 1 v -2 z m 0,2 h -1 v 1 h 2 v -1 z m 3,-3 h 2 v 1 h -2 z m 0,1.5 h 2 v 1 h -2 z m 0,1.5 h 2 v 1 h -2 z m 3,-3 h 2 v 1 h -2 z m 0,1.5 h 2 v 1 h -2 z m 0,1.5 h 2 v 1 h -2 z"
       id="cutoff-label" />

    <!-- RESONANCE label -->
    <path
       style="fill:#66aa99;fill-opacity:1;font-size:3px"
       d="m 8,81 h 2 v 1 h -1 v 1 h 1 v 1 h 1 v -2 h 1 v 2 h -2 v 1 h -2 z m 3,0 h 2 v 1 h -2 z m 0,1.5 h 2 v 1 h -2 z m 0,1.5 h 2 v 1 h -2 z m 3,0 h 1 v 1 h -1 z m 0,-3 h 2 v 1 h -1 v 3 h -1 z m 3,1.5 h 2 v 1 h -2 z m 1,-1.5 v 2 h 1 v -2 z m 0,2 h -1 v 1 h 2 v -1 z m 3,-2 h 2 v 4 h -1 v -3 h -1 z m 3,0 h 3 v 1 h -1 v 3 h -1 v -3 h -1 z m 4,0 h 2 v 1 h -2 z m 0,1.5 h 2 v 1 h -2 z m 0,1.5 h 2 v 1 h -2 z m 3,0 h 2 v 1 h -2 z m 0,1.5 h 2 v 1 h -2 z m 0,1.5 h 2 v 1 h -2 z"
       id="resonance-label" />

    <!-- DRIVE label -->
    <path
       style="fill:#aa8866;fill-opacity:1;font-size:3px"
       d="m 46,56 h 2 v 1 h -1 v 2 h 1 v 1 h -2 z m 3,0 h 2 v 1 h -1 v 1 h 1 v 1 h -1 v 1 h -1 z m 3,0 h 1 v 4 h -1 z m 2,0 h 2 v 4 h -1 v -1 h -1 z m 0,1 v 1 h 1 v -1 z m 3,0 h 2 v 1 h -2 z m 0,1.5 h 2 v 1 h -2 z m 0,1.5 h 2 v 1 h -2 z"
       id="drive-label" />

    <!-- OUTPUTS label -->
    <path
       style="fill:#aa8866;fill-opacity:1;font-size:3px"
       d="m 18,100 h 2 v 1 h -2 z m 1,1 v 2 h 1 v -2 z m 0,2 h -1 v 1 h 2 v -1 z m 3,-3 h 1 v 1 h 2 v 3 h -1 v -3 h -1 v 3 h -1 z m 4,0 h 2 v 1 h -2 z m 0,1.5 h 2 v 1 h -2 z m 0,1.5 h 2 v 1 h -2 z m 3,-3 h 2 v 1 h -2 z m 0,1.5 h 2 v 1 h -2 z m 0,1.5 h 2 v 1 h -2 z m 3,-3 h 2 v 1 h -2 z m 0,1.5 h 2 v 1 h -2 z m 0,1.5 h 2 v 1 h -2 z m 3,0 h 1 v 1 h -1 z m 0,-3 h 2 v 1 h -1 v 3 h -1 z m 3,1.5 h 2 v 1 h -2 z m 1,-1.5 v 2 h 1 v -2 z m 0,2 h -1 v 1 h 2 v -1 z"
       id="outputs-label" />
  </g>

  <g
     id="components"
     style="display:none">
    <!-- Audio Input (top left) -->
    <circle
       style="fill:#00ff00"
       cx="15"
       cy="35"
       r="4"
       id="audio-input" />

    <!-- Cutoff section -->
    <circle
       style="fill:#ff0000"
       cx="35.56"
       cy="40"
       r="5"
       id="cutoff-knob" />
    <circle
       style="fill:#00ff00"
       cx="20"
       cy="50"
       r="3.5"
       id="cutoff-cv-input" />
    <circle
       style="fill:#ff0000"
       cx="35.56"
       cy="62"
       r="4"
       id="cutoff-atten-knob" />

    <!-- Resonance section -->
    <circle
       style="fill:#ff0000"
       cx="35.56"
       cy="88"
       r="5"
       id="resonance-knob" />
    <circle
       style="fill:#00ff00"
       cx="20"
       cy="88"
       r="3.5"
       id="resonance-cv-input" />

    <!-- Drive section -->
    <circle
       style="fill:#ff0000"
       cx="55"
       cy="68"
       r="4"
       id="drive-knob" />

    <!-- Outputs section -->
    <circle
       style="fill:#0000ff"
       cx="20"
       cy="107"
       r="3.5"
       id="lp-output" />
    <circle
       style="fill:#0000ff"
       cx="35.56"
       cy="107"
       r="3.5"
       id="hp-output" />
    <circle
       style="fill:#0000ff"
       cx="51"
       cy="107"
       r="3.5"
       id="bp-output" />
    <circle
       style="fill:#0000ff"
       cx="20"
       cy="118"
       r="3.5"
       id="notch-output" />
  </g>
</svg>
